<?xml version="1.0" standalone="no"?>
<!DOCTYPE svg PUBLIC "-//W3C//DTD SVG 20010904//EN"
 "http://www.w3.org/TR/2001/REC-SVG-20010904/DTD/svg10.dtd">
<svg version="1.0" xmlns="http://www.w3.org/2000/svg"
 width="512.000000pt" height="512.000000pt" viewBox="0 0 512.000000 512.000000"
 preserveAspectRatio="xMidYMid meet">

<defs>
  <linearGradient id="gradient1" x1="0%" y1="0%" x2="100%" y2="100%">
    <stop offset="0%" style="stop-color:#ffdb6e" />
    <stop offset="100%" style="stop-color:#ffbc5e" />
  </linearGradient>
</defs>

<g transform="translate(0.000000,512.000000) scale(0.100000,-0.100000)"
fill="#000000" stroke="none">
<path fill="url(#gradient1)" d="M878 4830 c-293 -72 -517 -298 -588 -593 -20 -80 -20 -121 -20 -1677
0 -1552 1 -1597 20 -1677 71 -297 296 -522 593 -593 78 -19 121 -20 958 -20
l876 0 34 23 c49 32 83 105 74 158 -9 53 -64 115 -113 129 -24 6 -340 10 -878
10 -916 0 -881 -2 -998 57 -64 32 -157 125 -189 189 -60 119 -57 42 -57 1396
l0 1238 1970 0 1970 0 0 -512 c0 -316 4 -527 10 -550 14 -49 76 -104 129 -113
53 -9 126 25 158 74 l23 34 1 606 c1 1113 0 1140 -21 1230 -71 294 -297 520
-593 591 -80 19 -123 20 -1682 19 -1534 0 -1603 -1 -1677 -19z m3303 -316 c87
-26 149 -62 210 -123 110 -111 139 -200 139 -433 l0 -168 -1970 0 -1970 0 0
168 c0 233 29 322 139 433 61 60 113 92 201 120 52 17 148 18 1626 18 1416 1
1576 -1 1625 -15z"/>
<path fill="url(#gradient1)" d="M2655 4306 c-101 -44 -125 -178 -46 -257 112 -113 296 -12 267 146
-18 94 -131 151 -221 111z"/>
<path fill="url(#gradient1)" d="M3250 4309 c-14 -6 -36 -20 -48 -32 -101 -94 -46 -259 90 -274 91
-10 172 63 172 157 0 110 -113 189 -214 149z"/>
<path fill="url(#gradient1)" d="M3816 4298 c-110 -64 -106 -222 7 -279 103 -53 227 24 227 141 0 119
-132 197 -234 138z"/>
<path fill="url(#gradient1)" d="M2035 3139 c-17 -4 -45 -23 -63 -42 -28 -29 -54 -97 -202 -543 -101
-302 -170 -524 -170 -547 0 -134 166 -206 263 -114 31 29 49 78 207 551 149
448 172 524 167 563 -6 57 -31 92 -87 121 -47 23 -67 25 -115 11z"/>
<path fill="url(#gradient1)" d="M1325 2969 c-31 -17 -385 -371 -401 -401 -18 -35 -18 -102 1 -143 9
-17 98 -113 198 -212 191 -189 224 -212 290 -199 109 21 169 134 121 229 -9
18 -66 83 -127 145 l-111 112 121 123 c99 100 122 129 128 160 15 81 -15 151
-79 181 -39 18 -111 21 -141 5z"/>
<path fill="url(#gradient1)" d="M2372 2963 c-62 -30 -92 -100 -77 -180 6 -31 29 -60 128 -160 l121
-123 -111 -112 c-121 -124 -143 -157 -143 -218 0 -105 106 -182 207 -150 28
10 86 60 220 193 100 99 189 195 198 212 19 41 19 108 1 143 -18 32 -372 385
-403 401 -31 16 -103 13 -141 -6z"/>
<path fill="url(#gradient1)" d="M3772 2273 c-63 -31 -76 -63 -82 -201 l-5 -123 -66 -23 c-36 -13 -80
-31 -97 -41 l-32 -19 -88 86 c-68 68 -96 88 -126 93 -81 16 -163 -34 -187
-113 -20 -69 -1 -112 93 -208 l79 -81 -21 -37 c-12 -20 -32 -66 -45 -103 l-24
-68 -123 -5 c-106 -4 -127 -8 -154 -27 -40 -28 -64 -79 -64 -133 0 -52 20 -92
66 -127 35 -26 45 -28 157 -33 l120 -5 10 -30 c5 -16 23 -60 40 -98 l30 -67
-75 -78 c-89 -92 -109 -136 -89 -204 24 -79 106 -129 187 -113 30 5 57 25 121
88 l83 80 47 -25 c27 -14 74 -34 105 -44 l56 -17 4 -116 c2 -97 6 -120 23
-143 46 -61 141 -86 205 -53 16 8 42 31 57 52 26 34 28 44 32 149 3 112 3 112
30 119 14 3 61 22 104 42 l77 36 73 -70 c86 -84 132 -104 199 -84 79 24 129
106 113 187 -5 29 -25 57 -85 119 l-78 80 28 55 c15 30 33 74 40 96 l13 42
112 3 c104 4 114 6 148 32 46 35 67 74 67 127 0 54 -22 101 -63 131 -29 22
-44 24 -148 27 l-116 4 -17 56 c-10 31 -30 78 -44 105 l-25 47 80 83 c63 64
83 91 88 121 16 81 -34 163 -113 187 -68 20 -112 0 -204 -89 l-78 -75 -67 30
c-38 17 -81 35 -98 40 l-30 10 -5 120 c-5 112 -7 122 -33 157 -15 20 -41 43
-57 51 -38 20 -106 19 -148 -2z m183 -645 c93 -23 186 -106 233 -206 23 -49
27 -70 27 -152 -1 -82 -4 -102 -28 -150 -35 -72 -115 -153 -185 -187 -50 -24
-69 -27 -152 -28 -83 0 -102 4 -152 27 -194 90 -273 308 -184 503 47 103 158
185 274 205 50 8 102 4 167 -12z"/>
</g>
</svg>
